<?xml version="1.0" encoding="UTF-8"?>
<svg version="1.1" xmlns="http://www.w3.org/2000/svg" width="512" height="512">
<path d="M0 0 C0.94488785 -0.00705963 1.8897757 -0.01411926 2.86329651 -0.02139282 C41.96677384 -0.24733053 41.96677384 -0.24733053 58.76953125 3.203125 C60.28836914 3.50114014 60.28836914 3.50114014 61.83789062 3.80517578 C107.72863491 12.98194984 152.16580077 34.03366028 186.10546875 66.65625 C188.23025675 68.68757226 190.37342565 70.59221909 192.64453125 72.453125 C195.70527401 75.03492513 198.26008041 77.91922856 200.84375 80.97265625 C202.18350837 82.5243845 203.56490187 84.04072769 204.9765625 85.52734375 C217.60445544 98.84885278 227.66624165 114.32093498 236.76953125 130.203125 C237.19862793 130.95142578 237.62772461 131.69972656 238.06982422 132.47070312 C250.7662684 154.91182446 259.14680626 179.22942738 264.51953125 204.390625 C264.81778809 205.77785767 264.81778809 205.77785767 265.12207031 207.19311523 C268.41394507 223.3998108 269.14483399 239.33350461 269.08203125 255.828125 C269.0798761 256.84636353 269.07772095 257.86460205 269.07550049 258.91369629 C269.02580521 273.53559924 268.72014367 287.83446432 265.76953125 302.203125 C265.47151611 303.72196289 265.47151611 303.72196289 265.16748047 305.27148438 C257.79942663 342.11727272 243.01180395 376.86234183 220.76953125 407.203125 C220.34816895 407.78143066 219.92680664 408.35973633 219.49267578 408.95556641 C214.17873043 416.19921468 208.46677715 422.91314006 202.3125 429.44921875 C200.52322165 431.3869165 198.83300084 433.31456521 197.16796875 435.3515625 C195.25655729 437.62408752 193.47141354 439.50110689 191.20703125 441.390625 C188.81386585 443.41970958 186.48971987 445.47008134 184.21875 447.63671875 C170.63536095 460.58133155 155.01115426 470.89381705 138.76953125 480.203125 C138.02123047 480.63222168 137.27292969 481.06131836 136.50195312 481.50341797 C114.06083179 494.19986215 89.74322887 502.58040001 64.58203125 507.953125 C63.65720947 508.15196289 62.7323877 508.35080078 61.77954102 508.55566406 C45.57284545 511.84753882 29.63915164 512.57842774 13.14453125 512.515625 C11.61717346 512.51239227 11.61717346 512.51239227 10.05895996 512.50909424 C-4.56294299 512.45939896 -18.86180807 512.15373742 -33.23046875 509.203125 C-34.24302734 509.00444824 -35.25558594 508.80577148 -36.29882812 508.60107422 C-73.14461647 501.23302038 -107.88968558 486.4453977 -138.23046875 464.203125 C-138.80877441 463.7817627 -139.38708008 463.36040039 -139.98291016 462.92626953 C-147.25885775 457.58862937 -154.00403906 451.83841177 -160.578125 445.66796875 C-162.68757939 443.70763632 -164.81992817 441.84257817 -167.04296875 440.015625 C-170.12279949 437.40961438 -172.70149205 434.51009746 -175.3046875 431.43359375 C-176.64444587 429.8818655 -178.02583937 428.36552231 -179.4375 426.87890625 C-210.19643573 394.43046516 -229.72691032 351.35129033 -238.98046875 308.015625 C-239.17930664 307.09080322 -239.37814453 306.16598145 -239.58300781 305.21313477 C-242.87488257 289.0064392 -243.60577149 273.07274539 -243.54296875 256.578125 C-243.5408136 255.55988647 -243.53865845 254.54164795 -243.53643799 253.49255371 C-243.48674271 238.87065076 -243.18108117 224.57178568 -240.23046875 210.203125 C-240.03179199 209.19056641 -239.83311523 208.17800781 -239.62841797 207.13476562 C-230.43351083 161.15334236 -209.40413672 117.14906588 -176.9140625 83.0390625 C-174.68929883 80.6880022 -172.56825862 78.29938648 -170.48046875 75.828125 C-167.66994432 72.5841703 -164.63199308 69.79110768 -161.35546875 67.0234375 C-159.92981854 65.80220037 -158.5335819 64.545834 -157.16796875 63.2578125 C-116.39213167 24.88888247 -56.07221177 0.27991109 0 0 Z " fill="#080B0C" transform="translate(243.23046875,-0.203125)"/>
<path d="M0 0 C4.95520521 2.57289501 8.49116963 5.98233926 11 11 C11.58731395 17.93761556 9.86500945 23.00575331 7.29296875 29.3984375 C6.90099808 30.40460114 6.5090274 31.41076477 6.10517883 32.44741821 C4.81133806 35.76147427 3.49922781 39.06798792 2.1875 42.375 C1.27188557 44.71293447 0.3578476 47.0514869 -0.5546875 49.390625 C-1.96624851 53.00829942 -3.37881122 56.62554742 -4.79629517 60.24090576 C-9.05716738 71.11027529 -13.21312941 82.01769714 -17.34188843 92.93780518 C-24.57957005 112.07515923 -31.90343435 131.17869171 -39.26025391 150.27050781 C-45.38355772 166.16403077 -51.46039941 182.07449133 -57.5 198 C-63.76218064 214.50850635 -70.05246929 231.00592612 -76.38574219 247.48730469 C-77.23662625 249.70164587 -78.0870682 251.91615701 -78.93701172 254.13085938 C-80.880096 259.19271492 -82.83030585 264.25149992 -84.79833984 269.30371094 C-86.27592912 273.10058404 -87.70840196 276.91047975 -89.11181641 280.73535156 C-89.78914233 282.53459772 -90.46670257 284.33375569 -91.14453125 286.1328125 C-91.43164474 286.94378387 -91.71875824 287.75475525 -92.01457214 288.59030151 C-94.39239447 294.80216168 -97.98829611 298.99414806 -104 302 C-110.11054235 302.50921186 -113.13797331 302.08852244 -118 298 C-121.76261635 293.72892198 -123.35845797 291.16716741 -123.27035522 285.37991333 C-122.73900726 280.70250378 -120.87376036 276.4681836 -119.14453125 272.12109375 C-118.73569702 271.06165054 -118.32686279 270.00220734 -117.90563965 268.91065979 C-116.55349342 265.4147217 -115.1829075 261.92631541 -113.8125 258.4375 C-112.85625537 255.97385436 -111.90144467 253.50965171 -110.94799805 251.04492188 C-109.21424397 246.56484161 -107.47632311 242.08642433 -105.73296833 237.61007118 C-101.3054283 226.23932573 -96.96099486 214.83714913 -92.6199646 203.43313599 C-90.43411057 197.6935281 -88.24245739 191.95613672 -86.05078125 186.21875 C-85.62428787 185.10210464 -85.19779449 183.98545929 -84.75837708 182.8349762 C-80.14861862 170.76767648 -75.52729842 158.70481075 -70.90493774 146.64233398 C-65.20557512 131.76872403 -59.51909574 116.89023132 -53.8394165 102.00909424 C-51.19339138 95.07685808 -48.54619071 88.14507069 -45.8991394 81.21322632 C-43.74183875 75.56348434 -41.58536927 69.9134277 -39.43066406 64.26269531 C-37.3820173 58.8901461 -35.33126582 53.51840471 -33.27905273 48.1472168 C-32.52484055 46.17209671 -31.77138988 44.19668563 -31.01879883 42.22094727 C-28.70163644 36.13846199 -26.36486609 30.06410092 -24 24 C-23.68088654 23.17802124 -23.36177307 22.35604248 -23.0329895 21.50915527 C-22.10999091 19.14472257 -21.1728715 16.7864433 -20.23046875 14.4296875 C-19.95973541 13.73336212 -19.68900208 13.03703674 -19.4100647 12.3196106 C-15.83872621 3.51502364 -9.71121985 -1.30449222 0 0 Z " fill="#63CBC4" transform="translate(312,105)"/>
<path d="M0 0 C0.96711914 0.59127686 1.93423828 1.18255371 2.93066406 1.79174805 C5.86226069 3.59168688 8.77686148 5.41640372 11.6875 7.25 C12.90155518 8.01014404 12.90155518 8.01014404 14.14013672 8.78564453 C17.96552581 11.18251915 21.7787634 13.59775632 25.5859375 16.0234375 C31.54055041 19.80583798 37.55183963 23.49506823 43.5625 27.1875 C44.66086182 27.86466064 45.75922363 28.54182129 46.89086914 29.23950195 C52.16372326 32.48741822 57.44764747 35.71188498 62.76953125 38.87890625 C63.71779785 39.44939697 64.66606445 40.0198877 65.64306641 40.60766602 C67.39768479 41.66247548 69.15862555 42.70687753 70.92724609 43.73803711 C80.0601695 49.26076743 85.6386155 55.99915591 88.6875 66.25 C90.59901945 74.15094707 89.00668474 81.53240372 85.4296875 88.80859375 C79.61797995 98.22483029 69.74929437 103.19958701 60.5 108.8125 C59.33826546 109.52168315 58.17681138 110.23132592 57.015625 110.94140625 C54.67482613 112.37263061 52.33308776 113.80229768 49.99072266 115.23095703 C45.37730856 118.05083394 40.78139557 120.89847707 36.1875 123.75 C26.99383831 129.44949463 17.78233459 135.11981387 8.56640625 140.78320312 C7.00792969 141.74129883 7.00792969 141.74129883 5.41796875 142.71875 C4.4336084 143.32332031 3.44924805 143.92789063 2.43505859 144.55078125 C-0.62826335 146.44528283 -3.66948072 148.37264994 -6.69799805 150.32226562 C-11.1173542 152.86174141 -15.85733971 152.75362262 -20.75 151.75 C-21.265625 151.585 -21.78125 151.42 -22.3125 151.25 C-22.3125 150.59 -22.3125 149.93 -22.3125 149.25 C-23.22902344 149.14365234 -23.22902344 149.14365234 -24.1640625 149.03515625 C-26.3125 148.25 -26.3125 148.25 -27.6484375 146.24609375 C-29.72545999 141.13162107 -30.99576765 137.41140906 -29.14453125 132.07421875 C-27.79808198 129.12214454 -26.42376496 126.7231961 -24.3125 124.25 C-21.5625 123.375 -21.5625 123.375 -19.3125 123.25 C-18.9825 122.26 -18.6525 121.27 -18.3125 120.25 C-16.9925 120.25 -15.6725 120.25 -14.3125 120.25 C-13.8175 118.765 -13.8175 118.765 -13.3125 117.25 C-10.97916667 116.58333333 -8.64583333 115.91666667 -6.3125 115.25 C-5.8175 113.765 -5.8175 113.765 -5.3125 112.25 C-3.9925 112.25 -2.6725 112.25 -1.3125 112.25 C-0.8175 110.765 -0.8175 110.765 -0.3125 109.25 C2.02083333 108.58333333 4.35416667 107.91666667 6.6875 107.25 C7.1825 105.765 7.1825 105.765 7.6875 104.25 C9.0075 104.25 10.3275 104.25 11.6875 104.25 C12.1825 102.765 12.1825 102.765 12.6875 101.25 C15.02083333 100.58333333 17.35416667 99.91666667 19.6875 99.25 C20.1825 97.765 20.1825 97.765 20.6875 96.25 C22.0075 96.25 23.3275 96.25 24.6875 96.25 C25.1825 94.765 25.1825 94.765 25.6875 93.25 C28.02083333 92.58333333 30.35416667 91.91666667 32.6875 91.25 C33.1825 89.765 33.1825 89.765 33.6875 88.25 C35.0075 88.25 36.3275 88.25 37.6875 88.25 C38.1825 86.765 38.1825 86.765 38.6875 85.25 C41.02083333 84.58333333 43.35416667 83.91666667 45.6875 83.25 C46.1825 81.765 46.1825 81.765 46.6875 80.25 C48.0075 80.25 49.3275 80.25 50.6875 80.25 C51.1825 78.765 51.1825 78.765 51.6875 77.25 C55.25 76.0625 55.25 76.0625 58.6875 75.25 C58.6875 73.93 58.6875 72.61 58.6875 71.25 C57.553125 70.981875 56.41875 70.71375 55.25 70.4375 C54.074375 70.045625 52.89875 69.65375 51.6875 69.25 C51.3575 68.26 51.0275 67.27 50.6875 66.25 C49.0375 65.92 47.3875 65.59 45.6875 65.25 C45.6875 64.59 45.6875 63.93 45.6875 63.25 C44.553125 62.981875 43.41875 62.71375 42.25 62.4375 C41.074375 62.045625 39.89875 61.65375 38.6875 61.25 C38.3575 60.26 38.0275 59.27 37.6875 58.25 C35.50612203 57.22549761 35.50612203 57.22549761 32.6875 56.25 C29.99860527 54.96032642 27.34281129 53.60730552 24.6875 52.25 C24.6875 51.59 24.6875 50.93 24.6875 50.25 C23.553125 49.981875 22.41875 49.71375 21.25 49.4375 C19.4865625 48.8496875 19.4865625 48.8496875 17.6875 48.25 C17.3575 47.26 17.0275 46.27 16.6875 45.25 C15.0375 44.92 13.3875 44.59 11.6875 44.25 C11.6875 43.59 11.6875 42.93 11.6875 42.25 C10.553125 41.981875 9.41875 41.71375 8.25 41.4375 C6.4865625 40.8496875 6.4865625 40.8496875 4.6875 40.25 C4.3575 39.26 4.0275 38.27 3.6875 37.25 C2.0375 36.92 0.3875 36.59 -1.3125 36.25 C-1.3125 35.59 -1.3125 34.93 -1.3125 34.25 C-2.446875 33.981875 -3.58125 33.71375 -4.75 33.4375 C-5.925625 33.045625 -7.10125 32.65375 -8.3125 32.25 C-8.6425 31.26 -8.9725 30.27 -9.3125 29.25 C-10.9625 28.92 -12.6125 28.59 -14.3125 28.25 C-14.3125 27.59 -14.3125 26.93 -14.3125 26.25 C-15.446875 25.981875 -16.58125 25.71375 -17.75 25.4375 C-18.925625 25.045625 -20.10125 24.65375 -21.3125 24.25 C-21.6425 23.26 -21.9725 22.27 -22.3125 21.25 C-22.94414062 21.11722656 -23.57578125 20.98445313 -24.2265625 20.84765625 C-26.3125 20.25 -26.3125 20.25 -27.6484375 18.24609375 C-29.72597006 13.13036507 -30.99897435 9.40766469 -29.140625 4.0703125 C-27.23457053 -0.11941101 -25.76829863 -3.02210069 -21.5625 -5.125 C-12.3351233 -6.89949552 -7.78568444 -4.91469605 0 0 Z " fill="#63CAC3" transform="translate(354.3125,182.75)"/>
<path d="M0 0 C3.18664292 4.18246883 3.39530077 8.25458228 3.59375 13.33984375 C2.20518463 19.56098201 -1.61701014 22.99522971 -6.78125 26.2890625 C-8.67905809 27.41538891 -10.585869 28.52664247 -12.5 29.625 C-14.58776881 30.85847967 -16.67499764 32.09287372 -18.76171875 33.328125 C-19.81149902 33.94365234 -20.8612793 34.55917969 -21.94287109 35.19335938 C-26.4422904 37.8523358 -30.87809729 40.60942147 -35.3125 43.375 C-37.02439483 44.43805538 -38.73664287 45.50054215 -40.44921875 46.5625 C-41.33270996 47.11035156 -42.21620117 47.65820312 -43.12646484 48.22265625 C-46.31651367 50.19577056 -49.51108347 52.16146255 -52.70703125 54.125 C-53.28147476 54.47801178 -53.85591827 54.83102356 -54.44776917 55.19473267 C-57.25005267 56.91659551 -60.0529446 58.63745027 -62.85668945 60.35693359 C-68.90319411 64.07123531 -74.89862614 67.84607151 -80.83349609 71.73681641 C-83 73 -83 73 -85 73 C-85 74.32 -85 75.64 -85 77 C-83.91041992 77.40835083 -83.91041992 77.40835083 -82.79882812 77.82495117 C-80.08834944 78.96290772 -77.7215245 80.2646457 -75.21875 81.80078125 C-74.30569092 82.35878418 -73.39263184 82.91678711 -72.4519043 83.49169922 C-70.99071167 84.39299561 -70.99071167 84.39299561 -69.5 85.3125 C-68.47753174 85.93914551 -67.45506348 86.56579102 -66.40161133 87.21142578 C-63.2647334 89.13611356 -60.13163692 91.06679816 -57 93 C-55.65881104 93.82781982 -55.65881104 93.82781982 -54.29052734 94.67236328 C-50.04250342 97.29669086 -45.79788876 99.92647736 -41.5546875 102.55859375 C-35.71735448 106.1779106 -29.87152367 109.78337609 -24.02285767 113.38433838 C-22.36678306 114.40407492 -20.7110949 115.42443896 -19.05541992 116.44482422 C-18.02263916 117.08049316 -16.9898584 117.71616211 -15.92578125 118.37109375 C-14.93175293 118.9856543 -13.93772461 119.60021484 -12.91357422 120.23339844 C-10.9953523 121.39648322 -9.05945092 122.53097304 -7.10595703 123.63378906 C-5.76766846 124.39320801 -5.76766846 124.39320801 -4.40234375 125.16796875 C-3.61722412 125.60004639 -2.83210449 126.03212402 -2.02319336 126.47729492 C1.80638196 129.35952748 3.22955298 133.38445167 4 138 C3.81723927 143.25437088 1.75007548 147.35409329 -2 151 C-6.45107216 153.86846873 -9.74514536 154.46918345 -15 154 C-18.4375 153 -18.4375 153 -21 152 C-21 151.34 -21 150.68 -21 150 C-22.134375 149.731875 -23.26875 149.46375 -24.4375 149.1875 C-25.613125 148.795625 -26.78875 148.40375 -28 148 C-28.33 147.01 -28.66 146.02 -29 145 C-30.65 144.67 -32.3 144.34 -34 144 C-34 143.34 -34 142.68 -34 142 C-35.134375 141.731875 -36.26875 141.46375 -37.4375 141.1875 C-38.613125 140.795625 -39.78875 140.40375 -41 140 C-41.33 139.01 -41.66 138.02 -42 137 C-43.65 136.67 -45.3 136.34 -47 136 C-47 135.34 -47 134.68 -47 134 C-48.134375 133.731875 -49.26875 133.46375 -50.4375 133.1875 C-52.2009375 132.5996875 -52.2009375 132.5996875 -54 132 C-54.33 131.01 -54.66 130.02 -55 129 C-56.65 128.67 -58.3 128.34 -60 128 C-60 127.34 -60 126.68 -60 126 C-61.134375 125.731875 -62.26875 125.46375 -63.4375 125.1875 C-65.2009375 124.5996875 -65.2009375 124.5996875 -67 124 C-67.33 123.01 -67.66 122.02 -68 121 C-70.18137797 119.97549761 -70.18137797 119.97549761 -73 119 C-75.68889473 117.71032642 -78.34468871 116.35730552 -81 115 C-81 114.34 -81 113.68 -81 113 C-82.134375 112.731875 -83.26875 112.46375 -84.4375 112.1875 C-85.613125 111.795625 -86.78875 111.40375 -88 111 C-88.33 110.01 -88.66 109.02 -89 108 C-90.65 107.67 -92.3 107.34 -94 107 C-94 106.34 -94 105.68 -94 105 C-95.134375 104.731875 -96.26875 104.46375 -97.4375 104.1875 C-98.613125 103.795625 -99.78875 103.40375 -101 103 C-101.33 102.01 -101.66 101.02 -102 100 C-103.32605781 99.31897657 -104.66033688 98.65385392 -106 98 C-111.73889974 92.02256408 -115.29398949 84.54222018 -116.05859375 76.26171875 C-115.80953271 66.64796262 -112.08864515 58.12473483 -105.34765625 51.3359375 C-101.53648743 48 -101.53648743 48 -99 48 C-98.67 47.01 -98.34 46.02 -98 45 C-96.68 45 -95.36 45 -94 45 C-93.67 44.01 -93.34 43.02 -93 42 C-90.66666667 41.33333333 -88.33333333 40.66666667 -86 40 C-85.67 39.01 -85.34 38.02 -85 37 C-82.66666667 36.33333333 -80.33333333 35.66666667 -78 35 C-77.67 34.01 -77.34 33.02 -77 32 C-75.68 32 -74.36 32 -73 32 C-72.67 31.01 -72.34 30.02 -72 29 C-68.4375 27.8125 -68.4375 27.8125 -65 27 C-65 26.34 -65 25.68 -65 25 C-64.38979004 24.70867187 -63.77958008 24.41734375 -63.15087891 24.1171875 C-56.96297593 21.10205148 -51.15384118 17.73256299 -45.375 14 C-43.77874177 12.97901665 -42.18238855 11.95818182 -40.5859375 10.9375 C-38.2885851 9.46734962 -35.99279103 7.99532689 -33.70410156 6.51171875 C-32.98963867 6.05410156 -32.27517578 5.59648437 -31.5390625 5.125 C-30.90436035 4.71507812 -30.2696582 4.30515625 -29.61572266 3.8828125 C-28 3 -28 3 -26 3 C-25.67 2.01 -25.34 1.02 -25 0 C-23.68 0 -22.36 0 -21 0 C-20.67 -0.99 -20.34 -1.98 -20 -3 C-13.2754914 -5.95878378 -5.68275054 -4.18041419 0 0 Z " fill="#63CAC3" transform="translate(184,181)"/>
</svg>
